# Blender v2.77 (sub 0) OBJ File: 'smallTable.blend'
# www.blender.org
mtllib smallTable.mtl
o table_legs_Cube.001
v -0.371901 -0.869567 0.893175
v -0.693843 -0.869567 -0.571704
v 0.371299 -0.869567 -0.893725
v 0.693240 -0.869567 0.571154
v -0.383168 -0.038607 0.716047
v -0.715577 -0.038607 -0.383454
v 0.383924 -0.038607 -0.715863
v 0.716333 -0.038607 0.383638
v -0.648940 -0.038607 -0.403600
v -0.660524 -0.869567 -0.581777
v -0.316532 -0.038607 0.695901
v -0.338583 -0.869567 0.883102
v 0.313123 -0.038607 -0.694458
v 0.657840 -0.869567 0.581857
v 0.335898 -0.869567 -0.883023
v 0.645532 -0.038607 0.405043
v -0.695277 -0.038607 -0.316309
v -0.683693 -0.869567 -0.538132
v 0.404224 -0.038607 -0.648718
v 0.381449 -0.869567 -0.860153
v -0.650374 -0.869567 -0.548205
v -0.628640 -0.038607 -0.336455
v 0.346048 -0.869567 -0.849450
v 0.333423 -0.038607 -0.627313
v -0.382685 -0.869567 0.857504
v 0.694764 -0.038607 0.312297
v -0.349367 -0.869567 0.847431
v -0.338100 -0.038607 0.624559
v 0.647056 -0.869567 0.546186
v 0.623963 -0.038607 0.333702
v -0.404737 -0.038607 0.644705
v 0.682456 -0.869567 0.535483
v -0.383168 -0.002232 0.716047
v -0.715577 -0.002232 -0.383454
v 0.383924 -0.002232 -0.715863
v 0.716333 -0.002232 0.383638
v -0.648940 -0.002232 -0.403600
v -0.316532 -0.002232 0.695901
v 0.313123 -0.002232 -0.694458
v 0.645532 -0.002232 0.405043
v -0.695277 -0.002232 -0.316309
v 0.404224 -0.002232 -0.648718
v -0.628640 -0.002232 -0.336455
v 0.333423 -0.002232 -0.627313
v 0.694764 -0.002232 0.312297
v -0.338100 -0.002232 0.624559
v 0.623963 -0.002232 0.333702
v -0.404737 -0.002232 0.644705
v -0.371901 -0.869567 0.893175
v -0.371901 -0.869567 0.893175
v -0.383168 -0.038607 0.716047
v -0.715577 -0.038607 -0.383454
v -0.693843 -0.869567 -0.571704
v -0.693843 -0.869567 -0.571704
v -0.382685 -0.869567 0.857504
v -0.382685 -0.869567 0.857504
v 0.383924 -0.038607 -0.715863
v 0.371299 -0.869567 -0.893725
v 0.371299 -0.869567 -0.893725
v -0.660524 -0.869567 -0.581777
v -0.660524 -0.869567 -0.581777
v 0.716333 -0.038607 0.383638
v 0.693240 -0.869567 0.571154
v 0.693240 -0.869567 0.571154
v 0.381449 -0.869567 -0.860153
v 0.381449 -0.869567 -0.860153
v 0.657840 -0.869567 0.581857
v 0.657840 -0.869567 0.581857
v 0.335898 -0.869567 -0.883023
v 0.335898 -0.869567 -0.883023
v -0.338583 -0.869567 0.883102
v -0.338583 -0.869567 0.883102
v -0.648940 -0.038607 -0.403600
v -0.648940 -0.038607 -0.403600
v -0.316532 -0.038607 0.695901
v -0.316532 -0.038607 0.695901
v -0.349367 -0.869567 0.847431
v -0.349367 -0.869567 0.847431
v -0.338100 -0.038607 0.624559
v -0.338100 -0.038607 0.624559
v -0.338100 -0.038607 0.624559
v -0.338100 -0.038607 0.624559
v -0.338100 -0.038607 0.624559
v 0.313123 -0.038607 -0.694458
v 0.313123 -0.038607 -0.694458
v -0.316532 -0.002232 0.695901
v -0.383168 -0.002232 0.716047
v -0.383168 -0.002232 0.716047
v 0.694764 -0.002232 0.312297
v 0.716333 -0.002232 0.383638
v 0.716333 -0.002232 0.383638
v 0.645532 -0.038607 0.405043
v 0.645532 -0.038607 0.405043
v 0.647056 -0.869567 0.546186
v 0.647056 -0.869567 0.546186
v 0.623963 -0.038607 0.333702
v 0.623963 -0.038607 0.333702
v 0.623963 -0.038607 0.333702
v 0.623963 -0.038607 0.333702
v 0.623963 -0.038607 0.333702
v -0.683693 -0.869567 -0.538132
v -0.683693 -0.869567 -0.538132
v 0.682456 -0.869567 0.535483
v 0.682456 -0.869567 0.535483
v -0.650374 -0.869567 -0.548205
v -0.650374 -0.869567 -0.548205
v -0.628640 -0.038607 -0.336455
v -0.628640 -0.038607 -0.336455
v -0.628640 -0.038607 -0.336455
v -0.628640 -0.038607 -0.336455
v -0.628640 -0.038607 -0.336455
v 0.346048 -0.869567 -0.849450
v 0.346048 -0.869567 -0.849450
v 0.333423 -0.038607 -0.627313
v 0.333423 -0.038607 -0.627313
v 0.333423 -0.038607 -0.627313
v 0.333423 -0.038607 -0.627313
v 0.333423 -0.038607 -0.627313
v -0.695277 -0.038607 -0.316309
v -0.695277 -0.038607 -0.316309
v 0.404224 -0.038607 -0.648718
v 0.404224 -0.038607 -0.648718
v 0.313123 -0.002232 -0.694458
v 0.383924 -0.002232 -0.715863
v 0.383924 -0.002232 -0.715863
v -0.695277 -0.002232 -0.316309
v -0.715577 -0.002232 -0.383454
v -0.715577 -0.002232 -0.383454
v 0.694764 -0.038607 0.312297
v 0.694764 -0.038607 0.312297
v -0.404737 -0.038607 0.644705
v -0.404737 -0.038607 0.644705
v -0.648940 -0.002232 -0.403600
v 0.645532 -0.002232 0.405043
v -0.404737 -0.002232 0.644705
v 0.404224 -0.002232 -0.648718
v 0.333423 -0.002232 -0.627313
v 0.333423 -0.002232 -0.627313
v -0.628640 -0.002232 -0.336455
v -0.628640 -0.002232 -0.336455
v -0.338100 -0.002232 0.624559
v -0.338100 -0.002232 0.624559
v 0.623963 -0.002232 0.333702
v 0.623963 -0.002232 0.333702
vn -0.9568 -0.0268 0.2893
vn -0.9561 -0.0479 0.2890
vn -0.9533 -0.0902 0.2882
vn -0.2887 0.0659 -0.9551
vn -0.2878 0.1045 -0.9520
vn -0.2832 0.2048 -0.9369
vn 0.9568 -0.0271 -0.2893
vn 0.9561 -0.0486 -0.2890
vn 0.9532 -0.0915 -0.2882
vn 0.2888 0.0656 0.9551
vn 0.2878 0.1039 0.9520
vn 0.2833 0.2036 0.9371
vn 0.0000 -1.0000 0.0000
vn 0.2894 0.0000 0.9572
vn -0.2879 0.1000 -0.9524
vn -0.2887 0.0700 -0.9549
vn 0.2806 -0.2439 0.9283
vn -0.2894 0.0000 -0.9572
vn -0.9532 -0.0915 0.2882
vn 0.9561 0.0486 -0.2890
vn 0.2879 0.0993 0.9525
vn 0.2887 0.0695 0.9549
vn 0.9569 0.0251 -0.2893
vn 0.9571 0.0140 -0.2893
vn 0.9561 0.0473 -0.2890
vn -0.2806 -0.2451 -0.9280
vn 0.9533 -0.0902 -0.2882
vn 0.0000 1.0000 0.0000
vn -0.9571 0.0144 0.2893
vn -0.9569 0.0258 0.2893
vn -0.9572 0.0000 0.2894
vn -0.9561 0.0473 0.2890
vn -0.9561 0.0486 0.2890
vn 0.9572 0.0000 -0.2894
usemtl None
s 1
f 119//1 52//2 53//3 101//3
f 84//4 57//5 58//6 69//6
f 129//7 62//8 63//9 103//9
f 75//10 51//11 49//12 71//12
f 112//13 70//13 59//13 65//13
f 51//11 75//10 86//14 87//14
f 6//15 73//16 60//6 54//6
f 66//17 122//17 115//17 113//17
f 102//13 2//13 61//13 105//13
f 73//16 6//15 128//18 133//18
f 114//19 85//19 15//19 23//19
f 74//20 107//20 106//20 10//20
f 8//21 92//22 67//12 64//12
f 92//22 8//21 91//14 134//14
f 120//17 18//17 21//17 108//17
f 7//23 121//24 20//25 3//25
f 80//26 78//26 56//26 132//26
f 84//4 73//16 133//18 39//18
f 76//27 72//27 77//27 79//27
f 75//10 92//22 134//14 86//14
f 139//28 37//28 127//28 126//28
f 131//29 5//30 88//31 135//31
f 96//32 94//32 68//32 93//32
f 5//30 131//29 55//33 50//33
f 14//13 95//13 104//13 4//13
f 121//24 7//23 125//34 136//34
f 1//13 25//13 27//13 12//13
f 129//7 121//24 136//34 45//34
f 130//26 32//26 29//26 97//26
f 119//1 131//29 135//31 41//31
f 137//28 123//28 37//28 139//28
f 42//28 124//28 123//28 137//28
f 141//28 139//28 126//28 48//28
f 89//28 42//28 137//28 143//28
f 38//28 141//28 48//28 33//28
f 40//28 143//28 141//28 38//28
f 90//28 89//28 143//28 40//28
f 62//8 129//7 45//34 36//34
f 57//5 84//4 39//18 35//18
f 52//2 119//1 41//31 34//31
f 13//13 116//13 109//13 9//13
f 138//18 117//18 110//18 140//18
f 17//13 111//13 81//13 31//13
f 82//31 142//31 43//31 22//31
f 11//13 83//13 98//13 16//13
f 144//18 99//18 28//18 46//18
f 118//13 19//13 26//13 100//13
f 30//31 47//31 44//31 24//31
o table_top_Circle.001
v 0.000378 0.000000 0.000092
v -0.289012 0.000000 -0.957119
v -0.406701 0.000000 -0.913301
v -0.517969 0.000000 -0.855078
v -0.621063 0.000000 -0.783369
v -0.714357 0.000000 -0.699304
v -0.796378 0.000000 -0.604209
v -0.865835 0.000000 -0.499583
v -0.921630 0.000000 -0.387078
v -0.962885 0.000000 -0.268467
v -0.988949 0.000000 -0.145620
v -0.999410 0.000000 -0.020476
v -0.994105 0.000000 0.104993
v -0.973115 0.000000 0.228808
v -0.936773 0.000000 0.349016
v -0.885652 0.000000 0.463720
v -0.820557 0.000000 0.571114
v -0.742516 0.000000 0.669501
v -0.652758 0.000000 0.757332
v -0.552701 0.000000 0.833221
v -0.443921 0.000000 0.895971
v -0.328134 0.000000 0.944592
v -0.207166 0.000000 0.978318
v -0.082926 0.000000 0.996616
v 0.042629 0.000000 0.999199
v 0.167517 0.000000 0.986025
v 0.289769 0.000000 0.957303
v 0.407458 0.000000 0.913485
v 0.518726 0.000000 0.855262
v 0.621820 0.000000 0.783552
v 0.715114 0.000000 0.699487
v 0.797135 0.000000 0.604392
v 0.866591 0.000000 0.499766
v 0.922387 0.000000 0.387261
v 0.963642 0.000000 0.268650
v 0.989705 0.000000 0.145803
v 1.000167 0.000000 0.020658
v 0.994861 0.000000 -0.104811
v 0.973871 0.000000 -0.228625
v 0.937529 0.000000 -0.348833
v 0.886407 0.000000 -0.463537
v 0.821313 0.000000 -0.570931
v 0.743271 0.000000 -0.669318
v 0.653514 0.000000 -0.757149
v 0.553456 0.000000 -0.833037
v 0.444676 0.000000 -0.895787
v 0.328889 0.000000 -0.944408
v 0.207921 0.000000 -0.978134
v 0.083681 0.000000 -0.996432
v -0.041874 0.000000 -0.999015
v -0.166762 0.000000 -0.985841
v 0.000378 0.035000 0.000092
v -0.289012 0.035000 -0.957119
v -0.406701 0.035000 -0.913301
v -0.517969 0.035000 -0.855078
v -0.621063 0.035000 -0.783369
v -0.714357 0.035000 -0.699304
v -0.796378 0.035000 -0.604209
v -0.865835 0.035000 -0.499583
v -0.921630 0.035000 -0.387078
v -0.962885 0.035000 -0.268467
v -0.988949 0.035000 -0.145620
v -0.999410 0.035000 -0.020476
v -0.994105 0.035000 0.104993
v -0.973115 0.035000 0.228808
v -0.936773 0.035000 0.349016
v -0.885652 0.035000 0.463720
v -0.820557 0.035000 0.571114
v -0.742516 0.035000 0.669501
v -0.652758 0.035000 0.757332
v -0.552701 0.035000 0.833221
v -0.443921 0.035000 0.895971
v -0.328134 0.035000 0.944592
v -0.207166 0.035000 0.978318
v -0.082926 0.035000 0.996616
v 0.042629 0.035000 0.999199
v 0.167517 0.035000 0.986025
v 0.289769 0.035000 0.957303
v 0.407458 0.035000 0.913485
v 0.518726 0.035000 0.855262
v 0.621820 0.035000 0.783552
v 0.715114 0.035000 0.699487
v 0.797135 0.035000 0.604392
v 0.866591 0.035000 0.499766
v 0.922387 0.035000 0.387261
v 0.963642 0.035000 0.268650
v 0.989705 0.035000 0.145803
v 1.000167 0.035000 0.020658
v 0.994861 0.035000 -0.104811
v 0.973871 0.035000 -0.228625
v 0.937529 0.035000 -0.348833
v 0.886407 0.035000 -0.463537
v 0.821313 0.035000 -0.570931
v 0.743271 0.035000 -0.669318
v 0.653514 0.035000 -0.757149
v 0.553456 0.035000 -0.833037
v 0.444676 0.035000 -0.895787
v 0.328889 0.035000 -0.944408
v 0.207921 0.035000 -0.978134
v 0.083681 0.035000 -0.996432
v -0.041874 0.035000 -0.999015
v -0.166762 0.035000 -0.985841
v -0.406701 0.000000 -0.913301
v -0.289012 0.000000 -0.957119
v -0.517969 0.000000 -0.855078
v -0.621063 0.000000 -0.783369
v -0.714357 0.000000 -0.699304
v -0.796378 0.000000 -0.604209
v -0.865835 0.000000 -0.499583
v -0.921630 0.000000 -0.387078
v -0.962885 0.000000 -0.268467
v -0.988949 0.000000 -0.145620
v -0.999410 0.000000 -0.020476
v -0.994105 0.000000 0.104993
v -0.973115 0.000000 0.228808
v -0.936773 0.000000 0.349016
v -0.885652 0.000000 0.463720
v -0.820557 0.000000 0.571114
v -0.742516 0.000000 0.669501
v -0.652758 0.000000 0.757332
v -0.552701 0.000000 0.833221
v -0.443921 0.000000 0.895971
v -0.328134 0.000000 0.944592
v -0.207166 0.000000 0.978318
v -0.082926 0.000000 0.996616
v 0.042629 0.000000 0.999199
v 0.167517 0.000000 0.986025
v 0.289769 0.000000 0.957303
v 0.407458 0.000000 0.913485
v 0.518726 0.000000 0.855262
v 0.621820 0.000000 0.783552
v 0.715114 0.000000 0.699487
v 0.797135 0.000000 0.604392
v 0.866591 0.000000 0.499766
v 0.922387 0.000000 0.387261
v 0.963642 0.000000 0.268650
v 0.989705 0.000000 0.145803
v 1.000167 0.000000 0.020658
v 0.994861 0.000000 -0.104811
v 0.973871 0.000000 -0.228625
v 0.937529 0.000000 -0.348833
v 0.886407 0.000000 -0.463537
v 0.821313 0.000000 -0.570931
v 0.743271 0.000000 -0.669318
v 0.653514 0.000000 -0.757149
v 0.553456 0.000000 -0.833037
v 0.444676 0.000000 -0.895787
v 0.328889 0.000000 -0.944408
v 0.207921 0.000000 -0.978134
v 0.083681 0.000000 -0.996432
v -0.041874 0.000000 -0.999015
v -0.166762 0.000000 -0.985841
v -0.406701 0.035000 -0.913301
v -0.289012 0.035000 -0.957119
v -0.517969 0.035000 -0.855078
v -0.621063 0.035000 -0.783369
v -0.714357 0.035000 -0.699304
v -0.796378 0.035000 -0.604209
v -0.865835 0.035000 -0.499583
v -0.921630 0.035000 -0.387078
v -0.962885 0.035000 -0.268467
v -0.988949 0.035000 -0.145620
v -0.999410 0.035000 -0.020476
v -0.994105 0.035000 0.104993
v -0.973115 0.035000 0.228808
v -0.936773 0.035000 0.349016
v -0.885652 0.035000 0.463720
v -0.820557 0.035000 0.571114
v -0.742516 0.035000 0.669501
v -0.652758 0.035000 0.757332
v -0.552701 0.035000 0.833221
v -0.443921 0.035000 0.895971
v -0.328134 0.035000 0.944592
v -0.207166 0.035000 0.978318
v -0.082926 0.035000 0.996616
v 0.042629 0.035000 0.999199
v 0.167517 0.035000 0.986025
v 0.289769 0.035000 0.957303
v 0.407458 0.035000 0.913485
v 0.518726 0.035000 0.855262
v 0.621820 0.035000 0.783552
v 0.715114 0.035000 0.699487
v 0.797135 0.035000 0.604392
v 0.866591 0.035000 0.499766
v 0.922387 0.035000 0.387261
v 0.963642 0.035000 0.268650
v 0.989705 0.035000 0.145803
v 1.000167 0.035000 0.020658
v 0.994861 0.035000 -0.104811
v 0.973871 0.035000 -0.228625
v 0.937529 0.035000 -0.348833
v 0.886407 0.035000 -0.463537
v 0.821313 0.035000 -0.570931
v 0.743271 0.035000 -0.669318
v 0.653514 0.035000 -0.757149
v 0.553456 0.035000 -0.833037
v 0.444676 0.035000 -0.895787
v 0.328889 0.035000 -0.944408
v 0.207921 0.035000 -0.978134
v 0.083681 0.035000 -0.996432
v -0.041874 0.035000 -0.999015
v -0.166762 0.035000 -0.985841
vt 0.0000 0.0000
vt 0.0000 0.0000
vt 0.0000 0.0000
vt 0.0000 0.0000
vt 0.0000 0.0000
vt 0.0000 0.0000
vt 0.0000 0.0000
vt 0.0000 0.0000
vt 0.0000 0.0000
vt 0.0000 0.0000
vt 0.0000 0.0000
vt 0.0000 0.0000
vt 0.0000 0.0000
vt 0.0000 0.0000
vt 0.0000 0.0000
vt 0.0000 0.0000
vt 0.0000 0.0000
vt 0.0000 0.0000
vt 0.0000 0.0000
vt 0.0000 0.0000
vt 0.0000 0.0000
vt 0.0000 0.0000
vt 0.0000 0.0000
vt 0.0000 0.0000
vt 0.0000 0.0000
vt 0.0000 0.0000
vt 0.0000 0.0000
vt 0.0000 0.0000
vt 0.0000 0.0000
vt 0.0000 0.0000
vt 0.0000 0.0000
vt 0.0000 0.0000
vt 0.0000 0.0000
vt 0.0000 0.0000
vt 0.0000 0.0000
vt 0.0000 0.0000
vt 0.0000 0.0000
vt 0.0000 0.0000
vt 0.0000 0.0000
vt 0.0000 0.0000
vt 0.0000 0.0000
vt 0.0000 0.0000
vt 0.0000 0.0000
vt 0.0000 0.0000
vt 0.0000 0.0000
vt 0.0000 0.0000
vt 0.0000 0.0000
vt 0.0000 0.0000
vt 0.0000 0.0000
vt 0.0000 0.0000
vt 0.0000 0.0000
vt 0.5000 0.5000
vt 0.5000 1.0000
vt 0.4372 0.9961
vt 0.3754 0.9843
vt 0.3156 0.9649
vt 0.2586 0.9382
vt 0.2055 0.9045
vt 0.1570 0.8645
vt 0.1140 0.8187
vt 0.0770 0.7679
vt 0.0467 0.7129
vt 0.0235 0.6545
vt 0.0079 0.5937
vt 0.0000 0.5314
vt 0.0000 0.4686
vt 0.0079 0.4063
vt 0.0235 0.3455
vt 0.0467 0.2871
vt 0.0770 0.2321
vt 0.1140 0.1813
vt 0.1570 0.1355
vt 0.2055 0.0955
vt 0.2586 0.0618
vt 0.3156 0.0351
vt 0.3754 0.0157
vt 0.4372 0.0039
vt 0.5000 0.0000
vt 0.5628 0.0039
vt 0.6246 0.0157
vt 0.6844 0.0351
vt 0.7414 0.0618
vt 0.7945 0.0955
vt 0.8430 0.1355
vt 0.8860 0.1813
vt 0.9230 0.2321
vt 0.9533 0.2871
vt 0.9765 0.3455
vt 0.9921 0.4063
vt 1.0000 0.4686
vt 1.0000 0.5314
vt 0.9921 0.5937
vt 0.9765 0.6545
vt 0.9533 0.7129
vt 0.9230 0.7679
vt 0.8860 0.8187
vt 0.8429 0.8645
vt 0.7945 0.9045
vt 0.7414 0.9382
vt 0.6844 0.9649
vt 0.6246 0.9843
vt 0.5628 0.9961
vt 0.0000 0.0000
vt 0.0000 0.0000
vt 0.0000 0.0000
vt 0.0000 0.0000
vt 0.0000 0.0000
vt 0.0000 0.0000
vt 0.0000 0.0000
vt 0.0000 0.0000
vt 0.0000 0.0000
vt 0.0000 0.0000
vt 0.0000 0.0000
vt 0.0000 0.0000
vt 0.0000 0.0000
vt 0.0000 0.0000
vt 0.0000 0.0000
vt 0.0000 0.0000
vt 0.0000 0.0000
vt 0.0000 0.0000
vt 0.0000 0.0000
vt 0.0000 0.0000
vt 0.0000 0.0000
vt 0.0000 0.0000
vt 0.0000 0.0000
vt 0.0000 0.0000
vt 0.0000 0.0000
vt 0.0000 0.0000
vt 0.0000 0.0000
vt 0.0000 0.0000
vt 0.0000 0.0000
vt 0.0000 0.0000
vt 0.0000 0.0000
vt 0.0000 0.0000
vt 0.0000 0.0000
vt 0.0000 0.0000
vt 0.0000 0.0000
vt 0.0000 0.0000
vt 0.0000 0.0000
vt 0.0000 0.0000
vt 0.0000 0.0000
vt 0.0000 0.0000
vt 0.0000 0.0000
vt 0.0000 0.0000
vt 0.0000 0.0000
vt 0.0000 0.0000
vt 0.0000 0.0000
vt 0.0000 0.0000
vt 0.0000 0.0000
vt 0.0000 0.0000
vt 0.0000 0.0000
vt 0.0000 0.0000
vt 0.0000 0.0000
vt 0.0000 0.0000
vt 0.0000 0.0000
vt 0.0000 0.0000
vt 0.0000 0.0000
vt 0.0000 0.0000
vt 0.0000 0.0000
vt 0.0000 0.0000
vt 0.0000 0.0000
vt 0.0000 0.0000
vt 0.0000 0.0000
vt 0.0000 0.0000
vt 0.0000 0.0000
vt 0.0000 0.0000
vt 0.0000 0.0000
vt 0.0000 0.0000
vt 0.0000 0.0000
vt 0.0000 0.0000
vt 0.0000 0.0000
vt 0.0000 0.0000
vt 0.0000 0.0000
vt 0.0000 0.0000
vt 0.0000 0.0000
vt 0.0000 0.0000
vt 0.0000 0.0000
vt 0.0000 0.0000
vt 0.0000 0.0000
vt 0.0000 0.0000
vt 0.0000 0.0000
vt 0.0000 0.0000
vt 0.0000 0.0000
vt 0.0000 0.0000
vt 0.0000 0.0000
vt 0.0000 0.0000
vt 0.0000 0.0000
vt 0.0000 0.0000
vt 0.0000 0.0000
vt 0.0000 0.0000
vt 0.0000 0.0000
vt 0.0000 0.0000
vt 0.0000 0.0000
vt 0.0000 0.0000
vt 0.0000 0.0000
vt 0.0000 0.0000
vt 0.0000 0.0000
vt 0.0000 0.0000
vt 0.0000 0.0000
vt 0.0000 0.0000
vt 0.0000 0.0000
vt 0.0000 0.0000
vn 0.0000 -1.0000 0.0000
vn 0.0000 1.0000 0.0000
vn 0.8209 0.0000 -0.5710
vn 0.7429 0.0000 -0.6694
vn 0.0422 0.0000 0.9991
vn 0.1671 0.0000 0.9859
vn -0.8662 0.0000 -0.4996
vn -0.9220 0.0000 -0.3872
vn 0.9998 0.0000 0.0205
vn 0.9945 0.0000 -0.1049
vn -0.5531 0.0000 0.8331
vn -0.4443 0.0000 0.8959
vn -0.4071 0.0000 -0.9134
vn -0.5183 0.0000 -0.8552
vn 0.0833 0.0000 -0.9965
vn -0.0422 0.0000 -0.9991
vn 0.7967 0.0000 0.6043
vn 0.8662 0.0000 0.4996
vn -0.9371 0.0000 0.3489
vn -0.8860 0.0000 0.4636
vn 0.6531 0.0000 -0.7572
vn 0.5531 0.0000 -0.8331
vn -0.9633 0.0000 -0.2685
vn -0.9893 0.0000 -0.1457
vn 0.2894 0.0000 0.9572
vn 0.4071 0.0000 0.9134
vn -0.2894 0.0000 -0.9572
vn 0.9735 0.0000 -0.2287
vn 0.9371 0.0000 -0.3489
vn -0.3285 0.0000 0.9445
vn -0.2075 0.0000 0.9782
vn -0.6214 0.0000 -0.7834
vn -0.7147 0.0000 -0.6994
vn -0.1671 0.0000 -0.9859
vn 0.9220 0.0000 0.3872
vn 0.9633 0.0000 0.2685
vn -0.8209 0.0000 0.5710
vn -0.7429 0.0000 0.6694
vn 0.4443 0.0000 -0.8959
vn 0.3285 0.0000 -0.9445
vn -0.9998 0.0000 -0.0205
vn -0.9945 0.0000 0.1049
vn 0.5183 0.0000 0.8552
vn 0.6214 0.0000 0.7834
vn 0.8860 0.0000 -0.4636
vn -0.0833 0.0000 0.9965
vn -0.7967 0.0000 -0.6043
vn 0.9893 0.0000 0.1457
vn -0.6531 0.0000 0.7572
vn 0.2075 0.0000 -0.9782
vn 0.7147 0.0000 0.6994
vn -0.9735 0.0000 0.2287
usemtl None
s 1
f 145/1/35 247/2/35 248/3/35
f 145/1/35 249/4/35 247/2/35
f 145/1/35 250/5/35 249/4/35
f 145/1/35 251/6/35 250/5/35
f 145/1/35 252/7/35 251/6/35
f 145/1/35 253/8/35 252/7/35
f 145/1/35 254/9/35 253/8/35
f 145/1/35 255/10/35 254/9/35
f 145/1/35 256/11/35 255/10/35
f 145/1/35 257/12/35 256/11/35
f 145/1/35 258/13/35 257/12/35
f 145/1/35 259/14/35 258/13/35
f 145/1/35 260/15/35 259/14/35
f 145/1/35 261/16/35 260/15/35
f 145/1/35 262/17/35 261/16/35
f 145/1/35 263/18/35 262/17/35
f 145/1/35 264/19/35 263/18/35
f 145/1/35 265/20/35 264/19/35
f 145/1/35 266/21/35 265/20/35
f 145/1/35 267/22/35 266/21/35
f 145/1/35 268/23/35 267/22/35
f 145/1/35 269/24/35 268/23/35
f 145/1/35 270/25/35 269/24/35
f 145/1/35 271/26/35 270/25/35
f 145/1/35 272/27/35 271/26/35
f 145/1/35 273/28/35 272/27/35
f 145/1/35 274/29/35 273/28/35
f 145/1/35 275/30/35 274/29/35
f 145/1/35 276/31/35 275/30/35
f 145/1/35 277/32/35 276/31/35
f 145/1/35 278/33/35 277/32/35
f 145/1/35 279/34/35 278/33/35
f 145/1/35 280/35/35 279/34/35
f 145/1/35 281/36/35 280/35/35
f 145/1/35 282/37/35 281/36/35
f 145/1/35 283/38/35 282/37/35
f 145/1/35 284/39/35 283/38/35
f 145/1/35 285/40/35 284/39/35
f 145/1/35 286/41/35 285/40/35
f 145/1/35 287/42/35 286/41/35
f 145/1/35 288/43/35 287/42/35
f 145/1/35 289/44/35 288/43/35
f 145/1/35 290/45/35 289/44/35
f 145/1/35 291/46/35 290/45/35
f 145/1/35 292/47/35 291/46/35
f 145/1/35 293/48/35 292/47/35
f 145/1/35 294/49/35 293/48/35
f 145/1/35 295/50/35 294/49/35
f 145/1/35 296/51/35 295/50/35
f 145/1/35 248/3/35 296/51/35
f 196/52/36 298/53/36 297/54/36
f 196/52/36 297/54/36 299/55/36
f 196/52/36 299/55/36 300/56/36
f 196/52/36 300/56/36 301/57/36
f 196/52/36 301/57/36 302/58/36
f 196/52/36 302/58/36 303/59/36
f 196/52/36 303/59/36 304/60/36
f 196/52/36 304/60/36 305/61/36
f 196/52/36 305/61/36 306/62/36
f 196/52/36 306/62/36 307/63/36
f 196/52/36 307/63/36 308/64/36
f 196/52/36 308/64/36 309/65/36
f 196/52/36 309/65/36 310/66/36
f 196/52/36 310/66/36 311/67/36
f 196/52/36 311/67/36 312/68/36
f 196/52/36 312/68/36 313/69/36
f 196/52/36 313/69/36 314/70/36
f 196/52/36 314/70/36 315/71/36
f 196/52/36 315/71/36 316/72/36
f 196/52/36 316/72/36 317/73/36
f 196/52/36 317/73/36 318/74/36
f 196/52/36 318/74/36 319/75/36
f 196/52/36 319/75/36 320/76/36
f 196/52/36 320/76/36 321/77/36
f 196/52/36 321/77/36 322/78/36
f 196/52/36 322/78/36 323/79/36
f 196/52/36 323/79/36 324/80/36
f 196/52/36 324/80/36 325/81/36
f 196/52/36 325/81/36 326/82/36
f 196/52/36 326/82/36 327/83/36
f 196/52/36 327/83/36 328/84/36
f 196/52/36 328/84/36 329/85/36
f 196/52/36 329/85/36 330/86/36
f 196/52/36 330/86/36 331/87/36
f 196/52/36 331/87/36 332/88/36
f 196/52/36 332/88/36 333/89/36
f 196/52/36 333/89/36 334/90/36
f 196/52/36 334/90/36 335/91/36
f 196/52/36 335/91/36 336/92/36
f 196/52/36 336/92/36 337/93/36
f 196/52/36 337/93/36 338/94/36
f 196/52/36 338/94/36 339/95/36
f 196/52/36 339/95/36 340/96/36
f 196/52/36 340/96/36 341/97/36
f 196/52/36 341/97/36 342/98/36
f 196/52/36 342/98/36 343/99/36
f 196/52/36 343/99/36 344/100/36
f 196/52/36 344/100/36 345/101/36
f 196/52/36 345/101/36 346/102/36
f 196/52/36 346/102/36 298/53/36
f 186/103/37 187/104/38 238/105/38 237/106/37
f 169/107/39 170/108/40 221/109/40 220/110/39
f 152/111/41 153/112/42 204/113/42 203/114/41
f 181/115/43 182/116/44 233/117/44 232/118/43
f 164/119/45 165/120/46 216/121/46 215/122/45
f 147/123/47 148/124/48 199/125/48 198/126/47
f 193/127/49 194/128/50 245/129/50 244/130/49
f 176/131/51 177/132/52 228/133/52 227/134/51
f 159/135/53 160/136/54 211/137/54 210/138/53
f 188/139/55 189/140/56 240/141/56 239/142/55
f 154/143/57 155/144/58 206/145/58 205/146/57
f 171/147/59 172/148/60 223/149/60 222/150/59
f 146/151/61 147/123/47 198/126/47 197/152/61
f 183/153/62 184/154/63 235/155/63 234/156/62
f 166/157/64 167/158/65 218/159/65 217/160/64
f 149/161/66 150/162/67 201/163/67 200/164/66
f 195/165/68 146/151/61 197/152/61 246/166/68
f 178/167/69 179/168/70 230/169/70 229/170/69
f 161/171/71 162/172/72 213/173/72 212/174/71
f 190/175/73 191/176/74 242/177/74 241/178/73
f 156/179/75 157/180/76 208/181/76 207/182/75
f 173/183/77 174/184/78 225/185/78 224/186/77
f 185/187/79 186/103/37 237/106/37 236/188/79
f 168/189/80 169/107/39 220/110/39 219/190/80
f 151/191/81 152/111/41 203/114/41 202/192/81
f 180/193/82 181/115/43 232/118/43 231/194/82
f 163/195/83 164/119/45 215/122/45 214/196/83
f 192/197/84 193/127/49 244/130/49 243/198/84
f 175/199/85 176/131/51 227/134/51 226/200/85
f 158/201/86 159/135/53 210/138/53 209/202/86
f 187/104/38 188/139/55 239/142/55 238/105/38
f 153/112/42 154/143/57 205/146/57 204/113/42
f 170/108/40 171/147/59 222/150/59 221/109/40
f 182/116/44 183/153/62 234/156/62 233/117/44
f 165/120/46 166/157/64 217/160/64 216/121/46
f 148/124/48 149/161/66 200/164/66 199/125/48
f 194/128/50 195/165/68 246/166/68 245/129/50
f 177/132/52 178/167/69 229/170/69 228/133/52
f 160/136/54 161/171/71 212/174/71 211/137/54
f 189/140/56 190/175/73 241/178/73 240/141/56
f 155/144/58 156/179/75 207/182/75 206/145/58
f 172/148/60 173/183/77 224/186/77 223/149/60
f 184/154/63 185/187/79 236/188/79 235/155/63
f 167/158/65 168/189/80 219/190/80 218/159/65
f 150/162/67 151/191/81 202/192/81 201/163/67
f 179/168/70 180/193/82 231/194/82 230/169/70
f 162/172/72 163/195/83 214/196/83 213/173/72
f 191/176/74 192/197/84 243/198/84 242/177/74
f 157/180/76 158/201/86 209/202/86 208/181/76
f 174/184/78 175/199/85 226/200/85 225/185/78
